<?xml version="1.0" encoding="UTF-8" standalone="no"?><!DOCTYPE svg PUBLIC "-//W3C//DTD SVG 1.1//EN" "http://www.w3.org/Graphics/SVG/1.1/DTD/svg11.dtd"><svg width="100%" height="100%" viewBox="0 0 3334 2500" version="1.1" xmlns="http://www.w3.org/2000/svg" xmlns:xlink="http://www.w3.org/1999/xlink" xml:space="preserve" xmlns:serif="http://www.serif.com/" style="fill-rule:evenodd;clip-rule:evenodd;stroke-linecap:round;stroke-linejoin:round;stroke-miterlimit:1.5;"><g><path d="M1406.89,763.981c-61.558,25.725 -109.104,64.314 -142.639,115.764c-33.535,51.451 -50.302,113.468 -50.302,186.05c-0,33.995 3.216,57.653 9.647,70.975c6.431,13.322 9.647,20.902 9.647,22.739c-49.613,0 -86.594,-10.336 -110.941,-31.008c-24.347,-20.672 -36.521,-54.896 -36.521,-102.672c0,-58.801 24.118,-115.994 72.353,-171.579c48.235,-55.586 110.022,-100.605 185.361,-135.059c75.339,-34.454 150.677,-51.68 226.016,-51.68c12.863,-0 31.238,0.918 55.126,2.756l-88.201,410.688l202.587,0l88.202,-410.688l198.453,-0l-219.125,1030.86l-198.454,-0l110.252,-518.184l-202.588,0l-110.251,518.184l-198.454,-0l199.832,-937.141Z" style="fill:#ffd8b3;fill-rule:nonzero;"/><path d="M2137.3,1706.63c-30.319,0 -56.044,-10.565 -77.176,-31.697c-21.132,-21.132 -31.697,-46.857 -31.697,-77.176c-0,-30.32 10.565,-56.275 31.697,-77.866c21.132,-21.591 46.857,-32.386 77.176,-32.386c30.32,-0 56.275,10.795 77.866,32.386c21.591,21.591 32.386,47.546 32.386,77.866c0,30.319 -10.795,56.044 -32.386,77.176c-21.591,21.132 -47.546,31.697 -77.866,31.697Z" style="fill:#ffd8b3;fill-rule:nonzero;"/></g><path d="M1666.67,404.921c532.511,-0 964.843,432.332 964.843,964.844c0,532.512 -432.332,599.459 -964.843,599.459c-532.512,-0 -964.844,-66.947 -964.844,-599.459c-0,-532.512 432.332,-964.844 964.844,-964.844Z" style="fill:none;stroke:#ffd8b3;stroke-width:50px;"/></svg>